<svg width="242" height="40" viewBox="0 0 242 40" fill="none" xmlns="http://www.w3.org/2000/svg">
<path d="M129.419 3.09031H118.45V31.556H116.231V3.09031H105.262V1.08814H129.419V3.09031Z" fill="black"/>
<path d="M145.416 8.66159C147.534 8.66159 149.449 9.15488 151.161 10.1415C152.873 11.128 154.208 12.4918 155.165 14.2329C156.152 15.9739 156.645 17.9616 156.645 20.1959C156.645 22.4302 156.152 24.4324 155.165 26.2024C154.208 27.9434 152.873 29.3072 151.161 30.2938C149.449 31.2514 147.534 31.7301 145.416 31.7301C143.413 31.7301 141.6 31.2659 139.975 30.3373C138.35 29.3798 137.088 28.0595 136.188 26.3765V40H134.012V8.83569H136.101V14.1893C137.001 12.4483 138.263 11.099 139.888 10.1415C141.542 9.15488 143.384 8.66159 145.416 8.66159ZM145.285 29.7715C147.026 29.7715 148.593 29.3653 149.986 28.5528C151.379 27.7403 152.467 26.6086 153.25 25.1578C154.063 23.7069 154.469 22.053 154.469 20.1959C154.469 18.3388 154.063 16.6848 153.25 15.2339C152.467 13.7831 151.379 12.6514 149.986 11.839C148.593 11.0265 147.026 10.6202 145.285 10.6202C143.544 10.6202 141.977 11.0265 140.584 11.839C139.22 12.6514 138.132 13.7831 137.32 15.2339C136.536 16.6848 136.145 18.3388 136.145 20.1959C136.145 22.053 136.536 23.7069 137.32 25.1578C138.132 26.6086 139.22 27.7403 140.584 28.5528C141.977 29.3653 143.544 29.7715 145.285 29.7715Z" fill="black"/>
<path d="M183.091 20.7182H163.548C163.606 22.4882 164.056 24.0696 164.897 25.4625C165.739 26.8263 166.87 27.8854 168.292 28.6398C169.743 29.3943 171.368 29.7715 173.167 29.7715C174.647 29.7715 176.011 29.5103 177.259 28.988C178.535 28.4367 179.594 27.6387 180.436 26.5941L181.698 28.0305C180.712 29.2202 179.464 30.1342 177.955 30.7726C176.475 31.411 174.865 31.7301 173.124 31.7301C170.86 31.7301 168.844 31.2369 167.074 30.2503C165.304 29.2637 163.911 27.8999 162.895 26.1589C161.909 24.4178 161.415 22.4302 161.415 20.1959C161.415 17.9906 161.88 16.0174 162.808 14.2764C163.766 12.5063 165.071 11.128 166.725 10.1415C168.379 9.15488 170.236 8.66159 172.297 8.66159C174.357 8.66159 176.199 9.15488 177.824 10.1415C179.478 11.099 180.77 12.4483 181.698 14.1893C182.656 15.9304 183.135 17.9035 183.135 20.1088L183.091 20.7182ZM172.297 10.5767C170.701 10.5767 169.264 10.9394 167.988 11.6649C166.711 12.3613 165.681 13.3624 164.897 14.6681C164.143 15.9449 163.708 17.3957 163.592 19.0207H181.002C180.915 17.3957 180.479 15.9449 179.696 14.6681C178.913 13.3914 177.882 12.3903 176.606 11.6649C175.329 10.9394 173.893 10.5767 172.297 10.5767Z" fill="black"/>
<path d="M190.246 8.83569H192.422V28.2046L208.613 8.83569H210.528V31.556H208.352V12.1872L192.161 31.556H190.246V8.83569ZM200.3 5.35364C198.472 5.35364 196.992 4.88937 195.86 3.96083C194.729 3.00326 194.148 1.68299 194.119 0H195.73C195.759 1.1897 196.194 2.13275 197.036 2.82916C197.906 3.52557 198.994 3.87378 200.3 3.87378C201.606 3.87378 202.679 3.52557 203.521 2.82916C204.362 2.13275 204.798 1.1897 204.827 0H206.481C206.452 1.68299 205.871 3.00326 204.74 3.96083C203.608 4.88937 202.128 5.35364 200.3 5.35364Z" fill="black"/>
<path d="M241.285 29.6409V37.2144H239.24V31.556H217.738V37.2144H215.649V29.6409H216.998C218.536 29.5539 219.581 28.3642 220.132 26.0718C220.712 23.7505 221.119 20.5005 221.351 16.3221L221.655 8.83569H237.629V29.6409H241.285ZM223.353 16.4527C223.208 19.9057 222.918 22.7784 222.482 25.0707C222.047 27.3631 221.264 28.8865 220.132 29.6409H235.453V10.7943H223.614L223.353 16.4527Z" fill="black"/>
<path d="M28.988 0.725464V31.1934H20.37V19.3109H8.61806V31.1934H0V0.725464H8.61806V12.1727H20.37V0.725464H28.988Z" fill="#D3232A"/>
<path d="M66.5579 7.55898H50.7685V31.1934H42.281V7.55898H25.7527V0.725464H66.5579V7.55898Z" fill="#D3232A"/>
<path d="M76.3734 19.5285H72.4561V31.1934H63.8816V0.725464H72.4561V12.5644H76.5911L83.8598 0.725464H92.9132L83.3811 15.4371L93.0002 31.1934H83.294L76.3734 19.5285Z" fill="#D3232A"/>
</svg>
